<svg viewBox="0 0 22 18" fill="currentColor" xmlns="http://www.w3.org/2000/svg">
<path fill-rule="evenodd" clip-rule="evenodd" d="M5.14246e-05 2.98266C-0.000110751 2.99253 -0.000127099 3.00239 1.91283e-06 3.01225V15C1.91283e-06 16.6523 1.34772 18 3 18H19C20.6523 18 22 16.6523 22 15V3.01236C22.0001 3.00242 22.0001 2.99247 22 2.98251C21.9905 1.33822 20.6465 0 19 0H3C1.3535 0 0.00944232 1.3383 5.14246e-05 2.98266ZM2.10658 2.55395C2.27196 2.22692 2.61204 2 3 2H19C19.388 2 19.728 2.22692 19.8934 2.55395L11 8.77934L2.10658 2.55395ZM20 4.92066V15C20 15.5477 19.5477 16 19 16H3C2.45229 16 2 15.5477 2 15V4.92066L10.4265 10.8192C10.7709 11.0603 11.2291 11.0603 11.5735 10.8192L20 4.92066Z"/>
</svg>
