<svg width="18" height="14" viewBox="0 0 18 14" fill="none" xmlns="http://www.w3.org/2000/svg">
<path d="M6.91016 0.0664062L6.42188 0.125C6.42188 0.125 4.23193 0.364258 2.63281 1.64844H2.61328L2.59375 1.66797C2.23486 1.99756 2.07861 2.40283 1.83203 2.99609C1.58545 3.58936 1.32178 4.34619 1.08984 5.18359C0.625977 6.86084 0.25 8.89209 0.25 10.75V10.9062L0.328125 11.0625C0.906738 12.0781 1.93457 12.7251 2.88672 13.1719C3.83887 13.6187 4.66162 13.8555 5.23047 13.875L5.60156 13.8945L5.79688 13.5625L6.48047 12.3516C7.20557 12.5151 8.04053 12.625 9 12.625C9.95947 12.625 10.7944 12.5151 11.5195 12.3516L12.2031 13.5625L12.3984 13.8945L12.7695 13.875C13.3384 13.8555 14.1611 13.6187 15.1133 13.1719C16.0654 12.7251 17.0933 12.0781 17.6719 11.0625L17.75 10.9062V10.75C17.75 8.89209 17.374 6.86084 16.9102 5.18359C16.6782 4.34619 16.4146 3.58936 16.168 2.99609C15.9214 2.40283 15.7651 1.99756 15.4062 1.66797L15.3867 1.64844H15.3672C13.7681 0.364258 11.5781 0.125 11.5781 0.125L11.0898 0.0664062L10.9141 0.515625C10.9141 0.515625 10.7334 0.972168 10.6211 1.49219C9.91309 1.39697 9.33447 1.375 9 1.375C8.66553 1.375 8.08691 1.39697 7.37891 1.49219C7.2666 0.972168 7.08594 0.515625 7.08594 0.515625L6.91016 0.0664062ZM6.05078 1.49219C6.07764 1.58008 6.10449 1.65576 6.12891 1.72656C5.3208 1.92676 4.45898 2.23193 3.66797 2.72266L4.33203 3.77734C5.95312 2.77148 8.28223 2.625 9 2.625C9.71777 2.625 12.0469 2.77148 13.668 3.77734L14.332 2.72266C13.541 2.23193 12.6792 1.92676 11.8711 1.72656C11.8955 1.65576 11.9224 1.58008 11.9492 1.49219C12.5327 1.60938 13.646 1.87793 14.5664 2.60547C14.5615 2.60791 14.8008 2.96924 15.0156 3.48438C15.2354 4.01416 15.4795 4.71973 15.6992 5.51562C16.1216 7.0415 16.4536 8.89941 16.4805 10.5352C16.0874 11.1357 15.3574 11.6777 14.5859 12.0391C13.9121 12.354 13.3799 12.4688 13.0625 12.5273L12.75 12C12.9355 11.9316 13.1187 11.856 13.2773 11.7852C14.2393 11.3628 14.7617 10.9062 14.7617 10.9062L13.9414 9.96875C13.9414 9.96875 13.5898 10.291 12.7695 10.6523C11.9492 11.0137 10.6968 11.375 9 11.375C7.30322 11.375 6.05078 11.0137 5.23047 10.6523C4.41016 10.291 4.05859 9.96875 4.05859 9.96875L3.23828 10.9062C3.23828 10.9062 3.76074 11.3628 4.72266 11.7852C4.88135 11.856 5.06445 11.9316 5.25 12L4.9375 12.5273C4.62012 12.4688 4.08789 12.354 3.41406 12.0391C2.64258 11.6777 1.9126 11.1357 1.51953 10.5352C1.54639 8.89941 1.87842 7.0415 2.30078 5.51562C2.52051 4.71973 2.76465 4.01416 2.98438 3.48438C3.19922 2.96924 3.43848 2.60791 3.43359 2.60547C4.354 1.87793 5.46729 1.60938 6.05078 1.49219ZM6.8125 5.75C6.3291 5.75 5.90186 6.02588 5.64062 6.375C5.37939 6.72412 5.25 7.15381 5.25 7.625C5.25 8.09619 5.37939 8.52588 5.64062 8.875C5.90186 9.22412 6.3291 9.5 6.8125 9.5C7.2959 9.5 7.72314 9.22412 7.98438 8.875C8.24561 8.52588 8.375 8.09619 8.375 7.625C8.375 7.15381 8.24561 6.72412 7.98438 6.375C7.72314 6.02588 7.2959 5.75 6.8125 5.75ZM11.1875 5.75C10.7041 5.75 10.2769 6.02588 10.0156 6.375C9.75439 6.72412 9.625 7.15381 9.625 7.625C9.625 8.09619 9.75439 8.52588 10.0156 8.875C10.2769 9.22412 10.7041 9.5 11.1875 9.5C11.6709 9.5 12.0981 9.22412 12.3594 8.875C12.6206 8.52588 12.75 8.09619 12.75 7.625C12.75 7.15381 12.6206 6.72412 12.3594 6.375C12.0981 6.02588 11.6709 5.75 11.1875 5.75ZM6.8125 7C6.84668 7 6.89062 7.01221 6.96875 7.11719C7.04688 7.22217 7.125 7.40527 7.125 7.625C7.125 7.84473 7.04688 8.02783 6.96875 8.13281C6.89062 8.23779 6.84668 8.25 6.8125 8.25C6.77832 8.25 6.73438 8.23779 6.65625 8.13281C6.57812 8.02783 6.5 7.84473 6.5 7.625C6.5 7.40527 6.57812 7.22217 6.65625 7.11719C6.73438 7.01221 6.77832 7 6.8125 7ZM11.1875 7C11.2217 7 11.2656 7.01221 11.3438 7.11719C11.4219 7.22217 11.5 7.40527 11.5 7.625C11.5 7.84473 11.4219 8.02783 11.3438 8.13281C11.2656 8.23779 11.2217 8.25 11.1875 8.25C11.1533 8.25 11.1094 8.23779 11.0312 8.13281C10.9531 8.02783 10.875 7.84473 10.875 7.625C10.875 7.40527 10.9531 7.22217 11.0312 7.11719C11.1094 7.01221 11.1533 7 11.1875 7Z" fill="#12F7D6"/>
</svg>
