<svg width="18" height="18" viewBox="0 0 18 18" fill="none" xmlns="http://www.w3.org/2000/svg">
<path d="M8.99998 0.872253C7.02121 0.872335 5.10703 1.57651 3.59995 2.85879C2.09287 4.14107 1.09123 5.91777 0.77426 7.87099C0.457287 9.82421 0.845664 11.8265 1.8699 13.5195C2.89413 15.2126 4.48739 16.486 6.36458 17.1118C6.78125 17.1848 6.9375 16.9348 6.9375 16.716C6.9375 16.5181 6.92707 15.8618 6.92707 15.1639C4.83332 15.5493 4.29165 14.6535 4.12498 14.1848C3.94005 13.7289 3.64688 13.3249 3.27082 13.0077C2.97915 12.8514 2.56248 12.466 3.26039 12.4556C3.52688 12.4845 3.78247 12.5773 4.00551 12.7259C4.22854 12.8746 4.41245 13.0749 4.54165 13.3097C4.65562 13.5145 4.80888 13.6947 4.99264 13.8402C5.1764 13.9856 5.38704 14.0933 5.61251 14.1572C5.83797 14.221 6.07382 14.2398 6.30655 14.2123C6.53927 14.1849 6.76429 14.1118 6.96872 13.9972C7.00479 13.5736 7.1936 13.1775 7.49998 12.8827C5.64582 12.6744 3.70832 11.9556 3.70832 8.76811C3.6966 7.9399 4.00222 7.13859 4.56248 6.52853C4.30772 5.80871 4.33753 5.01877 4.64582 4.3202C4.64582 4.3202 5.34371 4.10144 6.93748 5.17436C8.30105 4.79934 9.74057 4.79934 11.1041 5.17436C12.6979 4.09103 13.3958 4.3202 13.3958 4.3202C13.7041 5.01876 13.734 5.80872 13.4791 6.52853C14.0411 7.13755 14.347 7.93956 14.3333 8.76811C14.3333 11.966 12.3854 12.6744 10.5312 12.8827C10.7301 13.0843 10.8833 13.3263 10.9803 13.5923C11.0774 13.8583 11.1161 14.1421 11.0937 14.4244C11.0937 15.539 11.0833 16.4348 11.0833 16.716C11.0833 16.9348 11.2396 17.1952 11.6562 17.1119C13.5301 16.4809 15.1188 15.2046 16.1387 13.5106C17.1585 11.8167 17.5432 9.81544 17.224 7.86412C16.9049 5.91279 15.9026 4.1384 14.3962 2.85768C12.8898 1.57696 10.9772 0.873283 8.99998 0.872253Z" fill="#12F7D6"/>
</svg>
