<svg width="30" height="28" viewBox="0 0 30 28" fill="none" xmlns="http://www.w3.org/2000/svg">
<path fill-rule="evenodd" clip-rule="evenodd" d="M16.3333 22.0001H25.6666C27.8758 22.0001 29.6666 20.2092 29.6666 18.0001V4.66675C29.6666 2.45761 27.8758 0.666748 25.6666 0.666748H4.33331C2.12417 0.666748 0.333313 2.45761 0.333313 4.66675V18.0001C0.333313 20.2092 2.12417 22.0001 4.33331 22.0001H13.6666V24.6667H9.66665C8.93027 24.6667 8.33331 25.2637 8.33331 26.0001C8.33331 26.7365 8.93027 27.3334 9.66665 27.3334H20.3333C21.0697 27.3334 21.6666 26.7365 21.6666 26.0001C21.6666 25.2637 21.0697 24.6667 20.3333 24.6667H16.3333V22.0001ZM4.33331 3.33341C3.59693 3.33341 2.99998 3.93037 2.99998 4.66675V18.0001C2.99998 18.7365 3.59693 19.3334 4.33331 19.3334H25.6666C26.403 19.3334 27 18.7365 27 18.0001V4.66675C27 3.93037 26.403 3.33341 25.6666 3.33341H4.33331Z" fill="#292F36"/>
</svg>
