<svg  viewBox="0 0 22 20" fill="currentColor" xmlns="http://www.w3.org/2000/svg">
<path fill-rule="evenodd" clip-rule="evenodd" d="M12 16H19C20.6569 16 22 14.6569 22 13V3C22 1.34315 20.6569 0 19 0H3C1.34315 0 0 1.34315 0 3V13C0 14.6569 1.34315 16 3 16H10V18H7C6.44772 18 6 18.4477 6 19C6 19.5523 6.44772 20 7 20H15C15.5523 20 16 19.5523 16 19C16 18.4477 15.5523 18 15 18H12V16ZM3 2C2.44772 2 2 2.44772 2 3V13C2 13.5523 2.44772 14 3 14H19C19.5523 14 20 13.5523 20 13V3C20 2.44772 19.5523 2 19 2H3Z" />
</svg>
